<svg width="24" height="24" viewBox="0 0 24 24" fill="none" xmlns="http://www.w3.org/2000/svg">
<path d="M10.8794 9.01532C10.6205 9.01532 10.4106 9.22523 10.4106 9.48407C10.4106 9.74291 10.6205 9.95282 10.8794 9.95282H17.382C17.6409 9.95282 17.8507 9.74291 17.8507 9.48407C17.8507 9.22523 17.6409 9.01532 17.382 9.01532H10.8794Z" fill="#313131"/>
<path d="M17.382 11.5306H16.4005C16.1416 11.5306 15.9317 11.7405 15.9317 11.9994C15.9317 12.2582 16.1416 12.4681 16.4005 12.4681H17.382C17.6408 12.4681 17.8507 12.2582 17.8507 11.9994C17.8507 11.7405 17.6408 11.5306 17.382 11.5306Z" fill="#313131"/>
<path d="M14.9902 11.9994C14.9902 11.7405 14.7804 11.5306 14.5215 11.5306H9.47046C9.21157 11.5306 9.00171 11.7405 9.00171 11.9994C9.00171 12.2582 9.21157 12.4681 9.47046 12.4681H14.5215C14.7804 12.4681 14.9902 12.2582 14.9902 11.9994Z" fill="#313131"/>
<path d="M19.6672 1.76879L17.8295 0.119866C17.6514 -0.0397898 17.3817 -0.0399304 17.2035 0.119773L15.6774 1.4881L14.1513 0.119773C13.9732 -0.0399304 13.7034 -0.0398367 13.5253 0.119866L12.0006 1.48805L10.4745 0.119773C10.2965 -0.0398835 10.0267 -0.0398835 9.84866 0.119773L8.32264 1.48801L6.79789 0.119866C6.61981 -0.0397898 6.35005 -0.0399304 6.17192 0.119773L4.33288 1.76869C4.23369 1.85757 4.17706 1.98451 4.17706 2.11768V21.8809C4.17706 22.0141 4.23369 22.1409 4.33273 22.2298L6.17178 23.8801C6.34995 24.0399 6.61995 24.0399 6.79803 23.88L8.32264 22.5108L9.84852 23.8801C9.93758 23.96 10.0496 24 10.1616 24C10.2736 24 10.3856 23.96 10.4747 23.8801L12.0005 22.5108L13.5252 23.88C13.7033 24.0399 13.9733 24.0399 14.1514 23.8801L15.6774 22.5107L17.2033 23.8801C17.3815 24.0399 17.6515 24.0399 17.8296 23.88L19.6673 22.2297C19.7663 22.1408 19.8229 22.014 19.8229 21.8809V2.11773C19.8229 1.9846 19.7663 1.85776 19.6672 1.76879ZM18.8854 21.6719L17.5163 22.9014L15.9905 21.5321C15.8123 21.3723 15.5424 21.3723 15.3643 21.5321L13.8385 22.9014L12.3139 21.5322C12.1358 21.3724 11.8657 21.3723 11.6876 21.5321L10.1616 22.9015L8.63567 21.5321C8.54661 21.4522 8.43463 21.4122 8.32259 21.4122C8.21052 21.4122 8.09848 21.4523 8.00938 21.5322L6.48477 22.9014L5.11461 21.6719V2.32702L6.48477 1.09848L8.00952 2.46666C8.18764 2.62637 8.45741 2.62651 8.63548 2.46676L10.1616 1.09843L11.6877 2.46676C11.8658 2.62646 12.1356 2.62637 12.3137 2.46666L13.8384 1.09848L15.3644 2.46671C15.5425 2.62637 15.8122 2.62637 15.9903 2.46671L17.5163 1.09848L18.8854 2.32693V21.6719Z" fill="#313131"/>
<path d="M8.35551 6.95049C7.80192 6.75586 7.48303 6.60849 7.29136 6.45952C7.22409 6.4066 7.19573 6.2821 7.22076 6.14968C7.23351 6.08222 7.293 5.85671 7.52221 5.78747C7.60565 5.76249 7.68347 5.75007 7.75518 5.74641C7.75687 5.74636 7.75851 5.74627 7.7602 5.74618C8.07248 5.73207 8.26636 5.88615 8.29265 5.90846C8.48756 6.07829 8.78334 6.05827 8.95354 5.86346C9.12389 5.66851 9.10392 5.37235 8.90901 5.20205C8.86607 5.16455 8.60986 4.95296 8.20406 4.8563V4.45224C8.20406 4.1934 7.9942 3.98349 7.73531 3.98349C7.47642 3.98349 7.26656 4.1934 7.26656 4.45224V4.88579C7.26178 4.88719 7.25709 4.88827 7.25226 4.88972C6.76326 5.03733 6.3982 5.45344 6.29957 5.97568C6.20868 6.45713 6.36661 6.92485 6.7139 7.19804C6.99586 7.41718 7.38136 7.60168 8.04379 7.8346C8.45976 7.98174 8.45104 8.31647 8.42793 8.45358C8.38045 8.73572 8.14251 9.04051 7.73268 9.04318C7.31254 9.04594 7.1924 9.02654 6.87609 8.81949C6.65953 8.67769 6.369 8.73844 6.22715 8.95501C6.0854 9.17161 6.14606 9.46215 6.36267 9.60394C6.71507 9.83461 6.97551 9.92836 7.29323 9.96282V10.365C7.29323 10.6238 7.50309 10.8338 7.76198 10.8338C8.02087 10.8338 8.23073 10.6238 8.23073 10.365V9.90483C8.8589 9.70749 9.26067 9.15474 9.35245 8.60916C9.47653 7.87182 9.07617 7.20535 8.35551 6.95049Z" fill="#313131"/>
<path d="M8.2267 14.0472H6.61935C6.36046 14.0472 6.1506 14.2571 6.1506 14.5159C6.1506 14.7748 6.36046 14.9847 6.61935 14.9847H8.2267C8.48559 14.9847 8.69545 14.7748 8.69545 14.5159C8.69545 14.2571 8.48559 14.0472 8.2267 14.0472Z" fill="#313131"/>
<path d="M17.3819 14.0472H10.1057C9.84679 14.0472 9.63693 14.2571 9.63693 14.5159C9.63693 14.7748 9.84679 14.9847 10.1057 14.9847H17.382C17.6409 14.9847 17.8507 14.7748 17.8507 14.5159C17.8507 14.2571 17.6408 14.0472 17.3819 14.0472Z" fill="#313131"/>
<path d="M17.3819 16.5624H10.1057C9.84679 16.5624 9.63693 16.7723 9.63693 17.0312C9.63693 17.29 9.84679 17.4999 10.1057 17.4999H17.382C17.6409 17.4999 17.8507 17.29 17.8507 17.0312C17.8507 16.7723 17.6408 16.5624 17.3819 16.5624Z" fill="#313131"/>
<path d="M8.2267 16.5624H6.61935C6.36046 16.5624 6.1506 16.7723 6.1506 17.0312C6.1506 17.29 6.36046 17.4999 6.61935 17.4999H8.2267C8.48559 17.4999 8.69545 17.29 8.69545 17.0312C8.69545 16.7723 8.48559 16.5624 8.2267 16.5624Z" fill="#313131"/>
<path d="M8.2267 19.0777H6.61935C6.36046 19.0777 6.1506 19.2876 6.1506 19.5464C6.1506 19.8053 6.36046 20.0152 6.61935 20.0152H8.2267C8.48559 20.0152 8.69545 19.8053 8.69545 19.5464C8.69545 19.2876 8.48559 19.0777 8.2267 19.0777Z" fill="#313131"/>
<path d="M17.3819 19.0777H10.1057C9.84679 19.0777 9.63693 19.2876 9.63693 19.5464C9.63693 19.8053 9.84679 20.0152 10.1057 20.0152H17.382C17.6409 20.0152 17.8507 19.8053 17.8507 19.5464C17.8507 19.2876 17.6408 19.0777 17.3819 19.0777Z" fill="#313131"/>
<path fill-rule="evenodd" clip-rule="evenodd" d="M10.8794 4.45224H17.3819V6.96751H10.8794V4.45224Z" fill="#1F8505"/>
</svg>
