<svg width="24" height="24" viewBox="0 0 24 24" fill="none" xmlns="http://www.w3.org/2000/svg">
<g clip-path="url(#clip0_4654_16844)">
<path fill-rule="evenodd" clip-rule="evenodd" d="M10.8281 13.1719H8.01562V10.8281H10.8281V8.01562H13.1719V10.8281H15.9844V13.1719H13.1719V15.9844H10.8281V13.1719Z" fill="#1F8505"/>
<path d="M24 8.90625V8.16586C24 6.45684 23.003 4.98469 21.5804 4.3417C22.1096 3.88889 22.4455 3.21642 22.4455 2.46698C22.4455 1.10667 21.3389 0 19.9785 0C18.6182 0 17.5116 1.10667 17.5116 2.46694C17.5116 3.21637 17.8476 3.88884 18.3767 4.34166C17.9618 4.5292 17.5831 4.78725 17.2547 5.10112C15.7508 3.95527 13.8992 3.32812 12 3.32812C10.1008 3.32812 8.2493 3.95527 6.74527 5.10122C6.41695 4.7873 6.03825 4.52925 5.62327 4.3417C6.15248 3.88889 6.48844 3.21642 6.48844 2.46698C6.48844 1.10667 5.38177 0 4.02145 0C2.66119 0 1.55456 1.10667 1.55456 2.46698C1.55456 3.21642 1.89052 3.88889 2.41969 4.3417C0.996984 4.98469 0 6.45684 0 8.16586V8.90625C0 9.16514 0.209906 9.375 0.46875 9.375H3.73256C3.46397 10.2205 3.32812 11.1009 3.32812 12C3.32812 12.9051 3.4657 13.7908 3.73772 14.6412C2.51062 14.7824 1.55456 15.8276 1.55456 17.0919C1.55456 17.8414 1.89052 18.5138 2.41969 18.9667C0.996984 19.6096 0 21.0818 0 22.7909V23.5312C0 23.7901 0.209906 24 0.46875 24H7.5742C7.83305 24 8.04295 23.7901 8.04295 23.5312V22.7909C8.04295 21.0818 7.04592 19.6097 5.62327 18.9667C5.81962 18.7987 5.98941 18.6004 6.12525 18.3792C6.82641 19.0264 7.62253 19.5487 8.49909 19.936C9.60441 20.4243 10.7822 20.6719 12 20.6719C13.2178 20.6719 14.3956 20.4243 15.5009 19.936C16.3775 19.5487 17.1736 19.0263 17.8748 18.3791C18.0106 18.6004 18.1804 18.7987 18.3768 18.9667C16.9541 19.6096 15.9571 21.0818 15.9571 22.7908V23.5312C15.9571 23.7901 16.167 24 16.4258 24H23.5312C23.7901 24 24 23.7901 24 23.5312V22.7909C24 21.0818 23.003 19.6097 21.5804 18.9667C22.1096 18.5139 22.4455 17.8414 22.4455 17.092C22.4455 15.8276 21.4894 14.7824 20.2623 14.6413C20.5343 13.7908 20.6719 12.9051 20.6719 12C20.6719 11.1009 20.536 10.2205 20.2674 9.375H23.5312C23.7901 9.375 24 9.16514 24 8.90625ZM19.9785 0.9375C20.8219 0.9375 21.508 1.62361 21.508 2.46694C21.508 3.31027 20.8219 3.99642 19.9785 3.99642C19.1352 3.99642 18.4491 3.31031 18.4491 2.46698C18.4491 1.62366 19.1352 0.9375 19.9785 0.9375ZM4.02145 0.9375C4.86478 0.9375 5.55094 1.62361 5.55094 2.46694C5.55094 3.31027 4.86478 3.99637 4.02145 3.99637C3.17817 3.99637 2.49206 3.31027 2.49206 2.46694C2.49206 1.62361 3.17817 0.9375 4.02145 0.9375ZM0.9375 8.16586C0.9375 6.38386 2.32097 4.93411 4.02145 4.93411C5.72194 4.93411 7.10545 6.38386 7.10545 8.16586V8.4375H0.9375V8.16586ZM4.02145 15.5625C4.86478 15.5625 5.55094 16.2486 5.55094 17.0919C5.55094 17.9353 4.86478 18.6214 4.02145 18.6214C3.17817 18.6214 2.49206 17.9353 2.49206 17.0919C2.49206 16.2486 3.17817 15.5625 4.02145 15.5625ZM7.10545 22.7909V23.0625H0.9375V22.7909C0.9375 21.0089 2.32097 19.5591 4.02145 19.5591C5.72194 19.5591 7.10545 21.0089 7.10545 22.7909ZM23.0625 22.7909V23.0625H16.8945V22.7909C16.8945 21.0089 18.2781 19.5591 19.9785 19.5591C21.679 19.5591 23.0625 21.0089 23.0625 22.7909ZM21.508 17.0919C21.508 17.9353 20.8219 18.6214 19.9785 18.6214C19.1352 18.6214 18.4491 17.9353 18.4491 17.0919C18.4491 16.2486 19.1352 15.5625 19.9785 15.5625C20.8219 15.5625 21.508 16.2486 21.508 17.0919ZM19.7344 12C19.7344 12.9448 19.5665 13.8655 19.2353 14.7394C18.2371 15.0554 17.5117 15.9906 17.5117 17.0919C17.5117 17.1982 17.5184 17.303 17.5315 17.4058C16.0643 18.9087 14.1061 19.7344 12 19.7344C9.89395 19.7344 7.93566 18.9087 6.46856 17.4059C6.48164 17.3031 6.48844 17.1983 6.48844 17.0919C6.48844 15.9905 5.76291 15.0554 4.7647 14.7394C4.43348 13.8655 4.26562 12.9448 4.26562 12C4.26562 11.0966 4.41919 10.2147 4.72233 9.375H7.5742C7.83305 9.375 8.04295 9.16514 8.04295 8.90625V8.16586C8.04295 7.29764 7.78566 6.49055 7.34592 5.82225C8.68134 4.81598 10.3197 4.26562 12 4.26562C13.6803 4.26562 15.3187 4.81598 16.6541 5.8223C16.2143 6.49059 15.957 7.29769 15.957 8.16591V8.90625C15.957 9.16514 16.167 9.375 16.4258 9.375H19.2777C19.5808 10.2147 19.7344 11.0966 19.7344 12ZM23.0625 8.4375H16.8945V8.16586C16.8945 6.38386 18.2781 4.93411 19.9785 4.93411C21.679 4.93411 23.0625 6.38386 23.0625 8.16586V8.4375Z" fill="#313131"/>
</g>
<defs>
<clipPath id="clip0_4654_16844">
<rect width="24" height="24" fill="white"/>
</clipPath>
</defs>
</svg>
