<svg width="22" height="22" viewBox="0 0 22 22" fill="none" xmlns="http://www.w3.org/2000/svg">
<path d="M7.10417 11C7.10417 11.3795 6.79617 11.6875 6.41667 11.6875C6.03717 11.6875 5.72917 11.3795 5.72917 11C5.72917 10.6205 6.03717 10.3125 6.41667 10.3125C6.79617 10.3125 7.10417 10.6205 7.10417 11ZM6.41667 13.9792C6.03717 13.9792 5.72917 14.2872 5.72917 14.6667C5.72917 15.0462 6.03717 15.3542 6.41667 15.3542C6.79617 15.3542 7.10417 15.0462 7.10417 14.6667C7.10417 14.2872 6.79617 13.9792 6.41667 13.9792ZM13.5208 11C13.5208 10.6205 13.2128 10.3125 12.8333 10.3125H8.70833C8.32883 10.3125 8.02083 10.6205 8.02083 11C8.02083 11.3795 8.32883 11.6875 8.70833 11.6875H12.8333C13.2128 11.6875 13.5208 11.3795 13.5208 11ZM10.0833 15.3542C10.4628 15.3542 10.7708 15.0462 10.7708 14.6667C10.7708 14.2872 10.4628 13.9792 10.0833 13.9792H8.70833C8.32883 13.9792 8.02083 14.2872 8.02083 14.6667C8.02083 15.0462 8.32883 15.3542 8.70833 15.3542H10.0833ZM19.9375 14.773V16.6017C19.9375 18.8907 18.2775 20.2794 16.7247 20.8166C16.6523 20.8423 16.5761 20.8542 16.5 20.8542C16.4239 20.8542 16.3477 20.8413 16.2753 20.8166C14.7225 20.2794 13.0625 18.8907 13.0625 16.6017V14.8197C13.0625 14.5145 13.2642 14.2459 13.5566 14.1597C14.9509 13.7509 15.599 13.4438 16.1912 13.1386C16.3892 13.0368 16.6247 13.0368 16.8236 13.1404C17.4103 13.4466 18.0492 13.7518 19.4223 14.1075C19.7257 14.1863 19.9375 14.4595 19.9375 14.773ZM18.5625 15.2982C17.677 15.0452 17.0728 14.8005 16.5036 14.52C15.927 14.8023 15.334 15.048 14.4375 15.3294V16.6017C14.4375 18.3553 15.8703 19.1602 16.5 19.4297C17.1298 19.1611 18.5625 18.3553 18.5625 16.6017V15.2982ZM12.6042 19.25C12.6042 19.6295 12.2962 19.9375 11.9167 19.9375H5.5C3.2835 19.9375 2.0625 18.7165 2.0625 16.5V5.5C2.0625 3.2835 3.2835 2.0625 5.5 2.0625H11C11.1824 2.0625 11.3575 2.13492 11.4859 2.26417L16.9859 7.76417C17.1151 7.89342 17.1875 8.06758 17.1875 8.25V11C17.1875 11.3795 16.8795 11.6875 16.5 11.6875C16.1205 11.6875 15.8125 11.3795 15.8125 11V8.9375H13.75C11.5335 8.9375 10.3125 7.7165 10.3125 5.5V3.4375H5.5C4.05442 3.4375 3.4375 4.05442 3.4375 5.5V16.5C3.4375 17.9456 4.05442 18.5625 5.5 18.5625H11.9167C12.2962 18.5625 12.6042 18.8705 12.6042 19.25ZM13.75 7.5625H14.8399L11.6875 4.41009V5.5C11.6875 6.94558 12.3044 7.5625 13.75 7.5625Z" fill="#032F39"/>
</svg>
