<svg width="24" height="24" viewBox="0 0 24 24" fill="none" xmlns="http://www.w3.org/2000/svg">
<g clip-path="url(#clip0_4654_16906)">
<path d="M5.64796 17.8852H21.176V21.6467H5.64796V17.8852Z" fill="#1F8505"/>
<path d="M21.1779 0H5.64605C4.60903 0 3.76533 0.843703 3.76533 1.88077V12.2372H1.4101C1.15125 12.2372 0.941345 12.4471 0.941345 12.706V22.1192C0.941345 23.1562 1.78505 24 2.82206 24H21.1779C22.215 24 23.0587 23.1562 23.0587 22.1192V1.88077C23.0587 0.843703 22.215 0 21.1779 0ZM1.87885 22.1193V13.1747H3.76533V22.1192C3.76533 22.6394 3.34219 23.0625 2.82206 23.0625C2.30194 23.0625 1.87885 22.6394 1.87885 22.1193ZM22.1212 22.1193C22.1212 22.6394 21.6981 23.0625 21.1779 23.0625H4.44816C4.60978 22.785 4.70283 22.4629 4.70283 22.1193C4.70283 22.0731 4.70283 2.51442 4.70283 1.88077C4.70283 1.36064 5.12592 0.9375 5.64605 0.9375H21.1779C21.6981 0.9375 22.1212 1.36064 22.1212 1.88077V22.1193Z" fill="#313131"/>
<path d="M20.7073 8.47191H6.11671C5.85787 8.47191 5.64796 8.68177 5.64796 8.94066C5.64796 9.1995 5.85787 9.40941 6.11671 9.40941H20.7073C20.9661 9.40941 21.176 9.1995 21.176 8.94066C21.176 8.68181 20.9661 8.47191 20.7073 8.47191Z" fill="#313131"/>
<path d="M20.7073 10.8253H6.11671C5.85787 10.8253 5.64796 11.0352 5.64796 11.294C5.64796 11.5529 5.85787 11.7628 6.11671 11.7628H20.7073C20.9661 11.7628 21.176 11.5529 21.176 11.294C21.176 11.0352 20.9661 10.8253 20.7073 10.8253Z" fill="#313131"/>
<path d="M20.7073 13.1786H6.11671C5.85787 13.1786 5.64796 13.3884 5.64796 13.6473C5.64796 13.9062 5.85787 14.1161 6.11671 14.1161H20.7073C20.9661 14.1161 21.176 13.9062 21.176 13.6473C21.176 13.3884 20.9661 13.1786 20.7073 13.1786Z" fill="#313131"/>
<path d="M20.7073 15.5319H6.11671C5.85787 15.5319 5.64796 15.7418 5.64796 16.0006C5.64796 16.2595 5.85787 16.4694 6.11671 16.4694H20.7073C20.9661 16.4694 21.176 16.2595 21.176 16.0006C21.176 15.7418 20.9661 15.5319 20.7073 15.5319Z" fill="#313131"/>
<path d="M6.11671 7.05615C6.37556 7.05615 6.58546 6.84624 6.58546 6.5874V4.89629C7.52854 6.86354 7.46967 6.75746 7.50984 6.81526C7.81589 7.25743 8.46811 7.05685 8.46811 6.49702V2.82207C8.46811 2.56318 8.2582 2.35332 7.99936 2.35332C7.74051 2.35332 7.53061 2.56318 7.53061 2.82207V4.69965L6.53957 2.6274C6.44507 2.42986 6.2264 2.32383 6.01303 2.37249C5.79951 2.42091 5.64796 2.61066 5.64796 2.82961V6.5874C5.64796 6.84629 5.85787 7.05615 6.11671 7.05615Z" fill="#313131"/>
<path d="M9.88199 7.05615H11.294C11.5528 7.05615 11.7628 6.84624 11.7628 6.5874C11.7628 6.32855 11.5528 6.11865 11.294 6.11865H10.3507V5.17346H11.294C11.5528 5.17346 11.7628 4.96355 11.7628 4.70471C11.7628 4.44586 11.5528 4.23596 11.294 4.23596H10.3507V3.29082H11.294C11.5528 3.29082 11.7628 3.08091 11.7628 2.82207C11.7628 2.56322 11.5528 2.35332 11.294 2.35332H9.88199C9.6231 2.35332 9.41324 2.56318 9.41324 2.82207V6.5874C9.41324 6.84629 9.62314 7.05615 9.88199 7.05615Z" fill="#313131"/>
<path d="M13.3545 6.66661C13.3912 6.88041 13.5697 7.04114 13.7862 7.05521C14.0055 7.06899 14.2012 6.93075 14.2644 6.72563L14.9684 4.44385L15.6407 6.72019C15.6998 6.92011 15.8859 7.06186 16.1051 7.05591C16.3182 7.04916 16.5 6.89944 16.5473 6.6916L17.399 2.95524C17.4565 2.70281 17.2985 2.45156 17.0461 2.394C16.7936 2.33644 16.5425 2.49455 16.4849 2.74683L16.0319 4.73456C16.0305 4.72978 15.426 2.68322 15.4274 2.688C15.2997 2.26196 14.7103 2.24006 14.5449 2.64375C14.531 2.67736 14.5786 2.52699 13.947 4.57449L13.6387 2.77627C13.5948 2.52113 13.3527 2.34994 13.0974 2.39344C12.8422 2.43722 12.6709 2.67952 12.7146 2.93466L13.3545 6.66661Z" fill="#313131"/>
<path d="M19.5742 7.05615C18.8091 7.05615 18.4118 6.6885 18.0996 6.34397C17.9258 6.15216 17.9404 5.85572 18.1322 5.68186C18.324 5.50805 18.6205 5.52258 18.7943 5.71444C19.0526 5.99949 19.2181 6.11865 19.5742 6.11865C19.9391 6.11865 20.1962 5.90016 20.2339 5.68894C20.2841 5.40765 19.9045 5.23524 19.7389 5.17416C19.1528 4.95793 18.7865 4.71802 18.7307 4.68038C17.8807 4.12196 18.0599 2.84738 19.1293 2.4428C20.129 2.06443 20.8899 2.62543 21.1019 2.95627C21.2415 3.17424 21.1781 3.46421 20.9601 3.6038C20.7457 3.741 20.4622 3.68204 20.32 3.47325C20.2926 3.44283 19.9855 3.12113 19.4612 3.3196C19.2382 3.40397 19.1456 3.55566 19.1333 3.66957C19.1262 3.73519 19.1401 3.8281 19.2466 3.89757C19.4816 4.05221 19.7981 4.19672 20.0634 4.29465C21.0123 4.64466 21.2504 5.3295 21.1568 5.85375C21.0324 6.55046 20.3668 7.05615 19.5742 7.05615Z" fill="#313131"/>
</g>
<defs>
<clipPath id="clip0_4654_16906">
<rect width="24" height="24" fill="white"/>
</clipPath>
</defs>
</svg>
