<svg width="24" height="24" viewBox="0 0 24 24" fill="none" xmlns="http://www.w3.org/2000/svg">
<g clip-path="url(#clip0_4654_16780)">
<path d="M8.93902 7.99712H2.82422V1.88232H8.93902V7.99712Z" fill="#1F8505"/>
<path d="M24 4.69275C24 3.91523 23.3674 3.28125 22.5899 3.28125H13.737C13.2484 2.4375 12.3367 1.875 11.294 1.875H10.8281C10.8281 0.841125 9.9803 0 8.94642 0H2.81634C1.78247 0 0.9375 0.841125 0.9375 1.875V20.25H0.46875C0.209859 20.25 0 20.4484 0 20.7073V23.5312C0 23.7901 0.209859 24 0.46875 24H11.294C11.5529 24 11.7656 23.7901 11.7656 23.5312V20.7073C11.7656 20.4484 11.5529 20.25 11.294 20.25H10.8281V7.54688H11.294C11.4998 7.54688 11.7003 7.51411 11.8936 7.47206L20.8474 12.6178C21.5121 12.999 22.3812 12.774 22.7717 12.0944C23.1595 11.4207 22.9269 10.5458 22.2528 10.1577L15.2066 6.09375H22.5899C23.4195 6.09375 24 5.4367 24 4.69275ZM22.5899 4.21875C22.8505 4.21875 23.0625 4.43742 23.0625 4.698C23.0625 4.93491 22.8759 5.15625 22.5899 5.15625H14.0757C14.1018 5.01562 14.1161 4.84856 14.1161 4.68745C14.1161 4.52639 14.1018 4.40625 14.0757 4.21875H22.5899ZM10.8281 23.0625H0.9375V21.1875H10.8281V23.0625ZM1.875 20.25V1.875C1.875 1.35806 2.29941 0.9375 2.81634 0.9375H8.94642C9.46341 0.9375 9.89062 1.35806 9.89062 1.875V20.25H1.875ZM10.8281 6.60938V2.8125H11.294C12.3332 2.8125 13.1786 3.67177 13.1786 4.71094C13.1786 5.75011 12.3331 6.60938 11.294 6.60938H10.8281ZM21.959 11.6258C21.8304 11.8496 21.5422 11.9305 21.3143 11.7998L12.9496 6.98798C13.2141 6.7957 13.4442 6.55908 13.6284 6.28852L21.7852 10.9801C22.011 11.1102 22.0891 11.3997 21.959 11.6258Z" fill="#313131"/>
<path d="M5.625 9.42188C5.625 9.16298 5.41514 8.95312 5.15625 8.95312H3.28125C3.02236 8.95312 2.8125 9.16298 2.8125 9.42188V11.2969C2.8125 11.5558 3.02236 11.7656 3.28125 11.7656H5.15625C5.41514 11.7656 5.625 11.5558 5.625 11.2969V9.42188ZM4.6875 10.8281H3.75V9.89062H4.6875V10.8281Z" fill="#313131"/>
<path d="M8.46963 9.89062H7.05762C6.79873 9.89062 6.58887 10.1005 6.58887 10.3594C6.58887 10.6183 6.79873 10.8281 7.05762 10.8281H8.46963C8.72848 10.8281 8.93838 10.6183 8.93838 10.3594C8.93838 10.1005 8.72852 9.89062 8.46963 9.89062Z" fill="#313131"/>
<path d="M5.625 13.1719C5.625 12.913 5.41514 12.7031 5.15625 12.7031H3.28125C3.02236 12.7031 2.8125 12.913 2.8125 13.1719V15.0469C2.8125 15.3058 3.02236 15.5156 3.28125 15.5156H5.15625C5.41514 15.5156 5.625 15.3058 5.625 15.0469V13.1719ZM4.6875 14.5781H3.75V13.6406H4.6875V14.5781Z" fill="#313131"/>
<path d="M8.46963 13.6406H7.05762C6.79873 13.6406 6.58887 13.8505 6.58887 14.1094C6.58887 14.3682 6.79873 14.5781 7.05762 14.5781H8.46963C8.72848 14.5781 8.93838 14.3682 8.93838 14.1094C8.93838 13.8505 8.72852 13.6406 8.46963 13.6406Z" fill="#313131"/>
<path d="M5.625 16.9219C5.625 16.663 5.41514 16.4531 5.15625 16.4531H3.28125C3.02236 16.4531 2.8125 16.663 2.8125 16.9219V18.7969C2.8125 19.0558 3.02236 19.2656 3.28125 19.2656H5.15625C5.41514 19.2656 5.625 19.0558 5.625 18.7969V16.9219ZM4.6875 18.375H3.75V17.3906H4.6875V18.375Z" fill="#313131"/>
<path d="M8.46963 17.4375H7.05762C6.79873 17.4375 6.58887 17.6474 6.58887 17.9062C6.58887 18.1651 6.79873 18.375 7.05762 18.375H8.46963C8.72848 18.375 8.93838 18.1651 8.93838 17.9062C8.93838 17.6474 8.72852 17.4375 8.46963 17.4375Z" fill="#313131"/>
</g>
<defs>
<clipPath id="clip0_4654_16780">
<rect width="24" height="24" fill="white"/>
</clipPath>
</defs>
</svg>
